<svg xmlns="http://www.w3.org/2000/svg"
     width="62"
     height="48"
     viewBox="0 0 58.000000 48.000000">
    <g transform="translate(0.000000,48.000000) scale(0.100000,-0.100000)">
        <path d="M84 456 c-50 -22 -74 -61 -74 -120 0 -57 28 -115 60 -123 18 -5 25
-27 55 -171 4 -18 13 -32 21 -32 10 0 13 7 9 23 -26 115 -35 160 -32 163 2 2
86 -12 188 -31 101 -19 192 -35 202 -35 14 0 17 9 17 48 0 36 5 54 20 67 11
10 20 23 20 29 -1 14 -404 196 -433 196 -12 -1 -36 -7 -53 -14z m95 -25 c11
-7 8 -12 -12 -25 -42 -28 -61 -98 -42 -156 5 -16 2 -20 -19 -20 -48 0 -92 93
-67 146 21 47 102 79 140 55z m166 -75 l35 -15 -31 -31 c-28 -28 -31 -36 -26
-76 l5 -44 -37 6 c-52 9 -61 21 -61 74 0 42 4 52 31 74 36 30 39 31 84 12z
m181 -79 c3 -2 -2 -17 -11 -33 -8 -16 -15 -42 -15 -58 0 -27 -1 -28 -37 -21
-47 8 -47 8 -47 50 0 49 30 78 73 71 18 -3 35 -7 37 -9z"/>
    </g>
</svg>
