<svg xmlns="http://www.w3.org/2000/svg"
     width="62"
     height="48"
     viewBox="0 0 62.000000 36.000000">
    <g transform="translate(0.000000,36.000000) scale(0.100000,-0.100000)">
        <path d="M110 282 c0 -82 14 -105 64 -100 49 5 45 34 -14 107 l-50 64 0 -71z"/>
        <path d="M422 271 c3 -58 8 -76 23 -87 24 -18 59 -18 74 0 16 18 -2 53 -59
116 l-41 45 3 -74z"/>
        <path d="M282 218 c6 -76 20 -98 64 -98 27 0 48 24 40 45 -9 23 -90 124 -100
124 -5 1 -6 -31 -4 -71z"/>
        <path d="M166 133 c-10 -30 -38 -52 -103 -78 -32 -13 -56 -28 -53 -32 10 -18
94 13 137 50 l35 31 17 -21 c28 -36 83 -63 129 -63 49 0 75 11 114 48 l28 25
21 -27 c23 -29 61 -52 96 -57 34 -6 32 13 -2 24 -46 15 -81 43 -95 77 -7 16
-15 30 -19 30 -3 0 -15 -14 -26 -31 -60 -91 -161 -90 -237 1 -32 39 -36 41
-42 23z"/>
    </g>
</svg>
