<svg xmlns="http://www.w3.org/2000/svg"
     width="62"
     height="48"
     viewBox="0 0 60.000000 22.000000">
    <g transform="translate(0.000000,22.000000) scale(0.100000,-0.100000)">
        <path d="M138 175 c-20 -19 -56 -39 -80 -46 -50 -14 -71 -29 -41 -29 32 0 85
21 120 47 l32 24 42 -30 c73 -53 153 -51 215 6 l26 24 15 -21 c16 -22 83 -60
108 -60 29 0 15 15 -31 34 -31 13 -53 30 -66 53 l-20 33 -38 -39 c-64 -66
-133 -66 -204 -1 l-41 38 -37 -33z"/>
        <path d="M156 105 c-17 -26 -72 -57 -119 -69 -25 -6 -39 -26 -17 -26 23 0 119
42 135 60 17 19 18 19 54 -10 71 -56 156 -58 212 -4 l29 28 28 -27 c35 -33
101 -62 114 -49 6 6 -4 14 -29 22 -44 14 -81 45 -94 78 -9 23 -9 22 -41 -14
-42 -47 -84 -65 -129 -55 -48 11 -73 26 -102 60 l-25 30 -16 -24z"/>
    </g>
</svg>
