<svg xmlns="http://www.w3.org/2000/svg"
     width="62"
     height="48"
     viewBox="0 0 68.000000 36.000000">
    <g transform="translate(0.000000,36.000000) scale(0.100000,-0.100000)">
        <path d="M390 341 c0 -4 33 -16 73 -26 86 -21 157 -52 157 -70 0 -7 -15 -20
-34 -29 -43 -20 -43 -20 -49 3 -9 36 -106 81 -211 98 -69 11 -36 -18 44 -38
85 -22 145 -50 145 -69 0 -7 -25 -24 -55 -39 -59 -28 -74 -57 -48 -88 14 -17
125 -73 146 -73 30 0 6 21 -63 53 -79 38 -91 56 -50 75 37 17 52 15 58 -7 3
-12 34 -33 79 -55 84 -40 88 -41 88 -23 0 6 -33 28 -72 47 -40 19 -74 41 -76
48 -2 7 16 21 43 33 95 42 103 79 27 118 -69 35 -202 63 -202 42z"/>
        <path d="M150 310 c0 -17 -4 -20 -22 -15 l-23 6 23 -20 c15 -13 22 -30 22 -55
0 -20 -2 -36 -5 -36 -21 0 -75 37 -75 51 0 10 -5 21 -10 24 -6 3 -10 -1 -10
-10 0 -12 -6 -15 -20 -10 -11 4 -20 2 -20 -4 0 -6 5 -11 11 -11 6 0 8 -9 4
-21 -6 -18 -5 -20 14 -10 16 9 28 8 50 -4 16 -8 32 -19 35 -23 9 -15 -63 -43
-92 -35 -23 5 -25 4 -15 -9 10 -11 10 -17 0 -27 -10 -11 -9 -13 3 -9 8 3 20
-2 27 -11 11 -14 12 -13 13 6 0 16 12 29 40 43 21 11 42 20 45 20 3 0 5 -17 5
-39 0 -29 -6 -43 -22 -54 l-23 -16 22 0 c12 -1 24 -9 26 -19 4 -16 5 -16 6 1
1 10 9 17 24 18 l22 0 -22 16 c-17 11 -23 25 -23 54 0 22 2 39 5 39 3 0 24 -9
45 -20 28 -14 40 -27 40 -43 1 -19 2 -20 13 -7 7 9 21 14 32 12 19 -3 19 -2 3
11 -14 11 -15 16 -5 26 9 10 6 11 -14 6 -18 -4 -40 0 -65 13 l-38 20 42 21
c33 17 47 19 62 11 21 -11 29 3 9 15 -6 5 -4 12 8 22 17 14 17 14 -4 10 -15
-4 -23 0 -23 9 0 8 -4 14 -10 14 -5 0 -10 -10 -10 -23 0 -17 -10 -28 -35 -40
-20 -9 -38 -17 -40 -17 -3 0 -5 17 -5 39 0 28 6 43 23 55 l22 17 -22 -5 c-15
-2 -23 1 -23 9 0 8 -4 17 -10 20 -5 3 -10 -3 -10 -15z"/>
    </g>
</svg>
