<svg xmlns="http://www.w3.org/2000/svg"
     width="62"
     height="48"
     viewBox="0 0 22.000000 62.000000">
    <g transform="translate(0.000000,58.000000) scale(0.100000,-0.100000)">
        <path d="M67 534 c-4 -4 -7 -82 -7 -173 0 -153 -2 -167 -19 -178 -11 -7 -24
-28 -31 -47 -9 -29 -8 -41 5 -69 38 -82 152 -81 190 0 19 39 10 81 -25 118
-17 19 -20 38 -22 185 l-3 165 -40 3 c-23 2 -44 0 -48 -4z m73 -64 c0 -38 -2
-40 -30 -40 -28 0 -30 2 -30 40 0 38 2 40 30 40 28 0 30 -2 30 -40z"/>
    </g>
</svg>
