<svg xmlns="http://www.w3.org/2000/svg"
     width="62"
     height="48"
     viewBox="0 0 22.000000 62.000000">
    <g transform="translate(-2.000000,58.000000) scale(0.100000,-0.100000)">
        <path d="M123 532 l-43 -3 0 -164 0 -163 -30 -30 c-101 -101 62 -229 167 -130
35 33 32 91 -7 130 l-30 30 0 163 c0 90 -3 165 -7 167 -5 2 -27 2 -50 0z m35
-191 c2 -155 4 -164 25 -182 22 -18 21 -18 -53 -18 -75 0 -75 0 -53 18 22 18
23 26 23 169 0 83 3 158 6 167 4 9 15 15 28 13 20 -3 21 -8 24 -167z"/>
    </g>
</svg>
