<svg xmlns="http://www.w3.org/2000/svg"
     width="62"
     height="48"
     viewBox="0 0 62.000000 52.000000">
    <g transform="translate(-3.000000,51.000000) scale(0.100000,-0.100000)">
        <path d="M298 480 c-33 -25 -51 -71 -46 -114 4 -40 11 -43 -76 32 -27 23 -52
42 -55 42 -9 0 -111 -138 -111 -150 0 -23 21 -6 62 50 23 33 48 59 53 60 6 0
62 -46 125 -101 135 -119 308 -269 331 -287 13 -9 24 -10 45 -2 36 14 44 26
44 68 0 46 -38 82 -85 82 -32 0 -35 2 -25 19 14 27 13 51 -5 85 -8 15 -15 43
-15 61 0 69 -36 132 -92 161 -40 21 -120 18 -150 -6z m142 -19 c38 -20 64 -58
75 -108 l6 -32 -49 6 c-58 6 -89 -7 -103 -45 l-10 -27 -40 42 c-31 34 -39 50
-39 80 0 87 79 128 160 84z m50 -166 c50 -26 66 -81 33 -117 -40 -44 -133 3
-133 67 0 24 7 39 22 49 28 20 41 20 78 1z m33 -175 c-4 -16 -8 -18 -20 -9
-11 10 -11 14 -1 20 21 14 26 10 21 -11z m102 -5 c29 -28 32 -61 8 -73 -35
-18 -83 16 -83 59 0 44 38 52 75 14z"/>
    </g>
</svg>
