<svg xmlns="http://www.w3.org/2000/svg"
     width="62"
     height="48"
     viewBox="0 0 62.000000 48.000000">
    <g transform="translate(0.000000,49.000000) scale(0.100000,-0.100000)">
        <path d="M390 292 c-33 -16 -54 -42 -92 -111 -18 -33 -51 -41 -89 -21 -25 14
-25 65 1 108 l20 32 -39 0 c-50 0 -93 -34 -126 -101 -14 -26 -34 -51 -46 -54
-14 -5 -18 -10 -11 -17 17 -17 53 11 73 57 20 45 70 95 95 95 12 0 13 -4 3
-21 -6 -12 -11 -38 -11 -57 0 -46 30 -72 82 -72 41 0 57 13 88 75 22 45 47 70
78 79 21 6 21 6 6 -39 -14 -44 -14 -48 6 -75 l22 -29 -53 -29 c-62 -35 -112
-54 -227 -86 l-85 -24 295 1 295 2 3 148 c1 81 0 147 -3 147 -17 0 -73 -37
-132 -87 -52 -44 -69 -54 -82 -46 -22 14 -26 69 -7 98 9 14 16 29 16 35 0 16
-41 12 -80 -8z"/>
    </g>
</svg>
