<svg width="50" height="50" viewBox="0 0 50 50" xmlns="http://www.w3.org/2000/svg">
    <g>
        <path d="M9.493,28.735l31.994,-0l5.824,11.004l-44.37,-0"
              style="fill:#fff"/>
        <path d="M14.374,32.951l-1.327,3.416l-1.056,-0l-1.328,-3.416l1.3,-0l0.456,1.554c0.05,0.168 0.085,0.335 0.085,0.508l0.028,-0c-0,-0.173 0.036,-0.34 0.087,-0.508l0.455,-1.554"
              style="fill:#231f20"/>
        <path d="M14.636,32.951 H 15.882 V 36.367 H 14.636 Z"
              style="fill:#231f20;"/>
        <path d="M20.06,34.356c-0.008,0.557 -0.008,1.024 -0.413,1.458c-0.364,0.395 -0.924,0.607 -1.455,0.607c-1.045,0 -1.892,-0.643 -1.892,-1.739c-0,-1.115 0.822,-1.786 1.901,-1.786c0.595,0 1.414,0.294 1.683,0.879l-1.165,0.426c-0.095,-0.172 -0.272,-0.262 -0.473,-0.262c-0.446,-0 -0.69,0.38 -0.69,0.793c-0,0.376 0.235,0.729 0.64,0.729c0.196,-0 0.446,-0.09 0.505,-0.299l-0.564,-0l0,-0.806"
              style="fill:#231f20"/>
        <path d="M20.473,32.951 H 21.719 V 36.367 H 20.473 Z"
              style="fill:#231f20"/>
        <path d="M23.473,34.477l0.123,0c0.22,0 0.456,-0.036 0.456,-0.312c-0,-0.267 -0.255,-0.28 -0.46,-0.28l-0.119,-0l0,0.592Zm-1.199,-1.526l1.577,-0c0.801,-0 1.393,0.408 1.393,1.255c-0,0.697 -0.438,1.133 -1.134,1.133l-0.637,0l0,1.028l-1.199,-0"
              style="fill:#231f20"/>
        <path d="M25.569,32.951 H 26.815 V 36.367 H 25.569 Z"
              style="fill:#231f20;"/>
        <path d="M28.588,34.465l0.086,-0c0.205,-0 0.41,-0.033 0.41,-0.286c-0,-0.262 -0.187,-0.294 -0.401,-0.294l-0.095,-0l0,0.58Zm-1.218,-1.514l1.504,-0c0.775,-0 1.428,0.325 1.428,1.186c0,0.518 -0.2,0.735 -0.663,0.888l-0,0.028c0.063,0.05 0.141,0.104 0.209,0.205l0.745,1.109l-1.436,-0l-0.546,-1.097l-0.023,0l0,1.097l-1.218,-0"
              style="fill:#231f20"/>
        <path d="M32.62,35.131l-0.145,-0.603c-0.036,-0.145 -0.059,-0.294 -0.082,-0.44l-0.045,0l-0.229,1.043l0.501,-0Zm-0.823,1.236l-1.318,-0l1.191,-3.416l1.378,-0l1.224,3.416l-1.319,-0l-0.114,-0.426l-0.942,0"
              style="fill:#231f20"/>
        <path d="M33.907,32.951l2.619,-0l0,1.11l-0.686,-0.032l0,2.338l-1.246,-0l-0,-2.338l-0.687,0.032"
              style="fill:#231f20"/>
        <path d="M36.811,32.951l2.306,-0l0,0.934l-1.051,-0l0,0.325l0.96,0l0,0.889l-0.96,-0l0,0.335l1.089,-0l-0,0.933l-2.344,-0"
              style="fill:#231f20"/>
        <path d="M25.126,6.046l14.27,24.262l-28.541,0"
              style="fill:#d01e27"/>
        <path d="M0,41.871 H 50 V 50 H 0 Z"
              style="fill:#fff;"/>
        <path d="M6.268,38.337l37.464,0l-18.732,-31.387l-18.732,31.387Zm43.732,3.552l-50,-0l25,-41.889"
              style="fill:#231f20"/>
        <path d="M3.58,45.429l-0.822,1.864l1.645,0l-0.823,-1.864Zm-1.061,2.39l-0.528,1.155l-0.62,0l2.209,-4.805l2.209,4.805l-0.619,0l-0.528,-1.155"
              style="fill:#231f20"/>
        <path d="M6.752,48.449l1.405,-0l0,0.525l-1.982,0l0,-4.609l0.577,0"
              style="fill:#231f20"/>
        <path d="M8.537,44.365l2.485,0l0,0.526l-1.908,-0l-0,1.29l1.853,-0l0,0.525l-1.853,0l-0,1.743l1.908,-0l0,0.525l-2.485,0"
              style="fill:#231f20"/>
        <path d="M12.31,46.548l0.185,-0c0.588,-0 1.227,-0.11 1.227,-0.844c-0,-0.722 -0.688,-0.825 -1.258,-0.825l-0.154,-0l0,1.669Zm2.301,2.426l-0.699,0l-1.362,-1.95l-0.24,0l0,1.95l-0.576,0l-0,-4.609l0.699,0c0.411,0 0.853,0.006 1.221,0.214c0.387,0.226 0.608,0.66 0.608,1.1c-0,0.661 -0.442,1.211 -1.111,1.29"
              style="fill:#231f20"/>
        <path d="M16.194,48.974l-0.577,0l0,-4.083l-1.098,-0l-0,-0.526l2.773,0l0,0.526l-1.098,-0"
              style="fill:#231f20"/>
        <path d="M17.746,44.365l2.485,0l-0,0.526l-1.908,-0l-0,1.29l1.853,-0l-0,0.525l-1.853,0l-0,1.743l1.908,-0l-0,0.525l-2.485,0"
              style="fill:#231f20"/>
        <path d="M24.433,45.429l-0.822,1.864l1.645,0l-0.823,-1.864Zm-1.061,2.39l-0.528,1.155l-0.62,0l2.209,-4.805l2.209,4.805l-0.619,0l-0.528,-1.155"
              style="fill:#231f20"/>
        <path d="M27.789,48.974l-0.577,0l0,-4.083l-1.098,-0l-0,-0.526l2.773,0l0,0.526l-1.098,-0"
              style="fill:#231f20"/>
        <path d="M30.587,48.974l-0.577,0l-0,-4.083l-1.098,-0l-0,-0.526l2.773,0l0,0.526l-1.098,-0"
              style="fill:#231f20"/>
        <path d="M32.139,44.365l2.485,0l-0,0.526l-1.909,-0l0,1.29l1.853,-0l0,0.525l-1.853,0l0,1.743l1.909,-0l-0,0.525l-2.485,0"
              style="fill:#231f20"/>
        <path d="M35.28,44.145l3.473,3.625l-0,-3.405l0.577,0l-0,4.799l-3.473,-3.625l-0,3.435l-0.577,0"
              style="fill:#231f20"/>
        <path d="M41.397,48.974l-0.577,0l-0,-4.083l-1.098,-0l-0,-0.526l2.773,0l0,0.526l-1.098,-0"
              style="fill:#231f20"/>
        <path d="M44.176,45.429l-0.822,1.864l1.644,0l-0.822,-1.864Zm-1.062,2.39l-0.527,1.155l-0.62,0l2.209,-4.805l2.209,4.805l-0.62,0l-0.528,-1.155"
              style="fill:#231f20"/>
        <path d="M47.532,48.974l-0.577,0l-0,-4.083l-1.098,-0l-0,-0.526l2.773,0l0,0.526l-1.098,-0"
              style="fill:#231f20"/>
    </g>
</svg>
