<svg width="50" height="42" viewBox="0 0 50 42" xmlns="http://www.w3.org/2000/svg">
    <g>
        <path d="M9.493,28.811l31.994,0l5.824,11.033l-44.37,0"
              style="fill:#fff"/>
        <path d="M14.374,33.038l-1.327,3.425l-1.056,0l-1.328,-3.425l1.3,0l0.456,1.558c0.05,0.168 0.085,0.337 0.085,0.51l0.028,-0c-0,-0.173 0.036,-0.342 0.087,-0.51l0.455,-1.558"
              style="fill:#231f20"/>
        <path d="M14.636,32.951 H 15.882 V 36.367 H 14.636 Z"
              style="fill:#231f20;"/>
        <path d="M20.06,34.447c-0.008,0.559 -0.008,1.027 -0.413,1.462c-0.364,0.396 -0.924,0.609 -1.455,0.609c-1.045,-0 -1.892,-0.645 -1.892,-1.744c-0,-1.118 0.822,-1.791 1.901,-1.791c0.595,0 1.414,0.296 1.683,0.882l-1.165,0.427c-0.095,-0.172 -0.272,-0.263 -0.473,-0.263c-0.446,-0 -0.69,0.381 -0.69,0.795c-0,0.377 0.235,0.731 0.64,0.731c0.196,0 0.446,-0.091 0.505,-0.3l-0.564,0l0,-0.808"
              style="fill:#231f20"/>
        <path d="M20.473,32.951 H 21.719 V 36.367 H 20.473 Z"
              style="fill:#231f20"/>
        <path d="M23.473,34.569l0.123,-0c0.22,-0 0.456,-0.036 0.456,-0.313c-0,-0.268 -0.255,-0.281 -0.46,-0.281l-0.119,-0l0,0.594Zm-1.199,-1.531l1.577,0c0.801,0 1.393,0.41 1.393,1.258c-0,0.7 -0.438,1.137 -1.134,1.137l-0.637,-0l0,1.03l-1.199,0"
              style="fill:#231f20"/>
        <path d="M25.569,32.951 H 26.815 V 36.367 H 25.569 Z"
              style="fill:#231f20;"/>
        <path d="M28.588,34.556l0.086,0c0.205,0 0.41,-0.033 0.41,-0.286c-0,-0.263 -0.187,-0.296 -0.401,-0.296l-0.095,0l0,0.582Zm-1.218,-1.518l1.504,0c0.775,0 1.428,0.327 1.428,1.19c0,0.518 -0.2,0.737 -0.663,0.89l-0,0.028c0.063,0.051 0.141,0.105 0.209,0.206l0.745,1.111l-1.436,0l-0.546,-1.099l-0.023,-0l0,1.099l-1.218,0"
              style="fill:#231f20"/>
        <path d="M32.62,35.224l-0.145,-0.605c-0.036,-0.145 -0.059,-0.295 -0.082,-0.44l-0.045,-0l-0.229,1.045l0.501,0Zm-0.823,1.239l-1.318,0l1.191,-3.425l1.378,0l1.224,3.425l-1.319,0l-0.114,-0.427l-0.942,0"
              style="fill:#231f20"/>
        <path d="M33.907,33.038l2.619,0l0,1.113l-0.686,-0.032l0,2.344l-1.246,0l-0,-2.344l-0.687,0.032"
              style="fill:#231f20"/>
        <path d="M36.811,33.038l2.306,0l0,0.937l-1.051,-0l0,0.326l0.96,0l0,0.891l-0.96,-0l0,0.336l1.089,-0l-0,0.935l-2.344,0"
              style="fill:#231f20"/>
        <path d="M25.126,6.062l14.27,24.327l-28.541,-0"
              style="fill:#d01e27"/>
        <path d="M6.268,38.439l37.464,-0l-18.732,-31.47l-18.732,31.47Zm43.732,3.561l-50,-0l25,-42"
              style="fill:#231f20"/>
    </g>
</svg>
